<svg xmlns="http://www.w3.org/2000/svg" xmlns:xlink="http://www.w3.org/1999/xlink" width="375" viewBox="0 0 375 375" height="375" version="1.0">
<defs>
<g id="e">
<path d="M 17.34375 -16.6875 L 17.34375 0 L 4.953125 0 L 4.953125 -45.859375 L 19.984375 -45.859375 C 32.441406 -45.859375 38.671875 -41.34375 38.671875 -32.3125 C 38.671875 -27 36.078125 -22.890625 30.890625 -19.984375 L 44.25 0 L 30.203125 0 L 20.484375 -16.6875 Z M 17.34375 -26 L 19.671875 -26 C 23.992188 -26 26.15625 -27.910156 26.15625 -31.734375 C 26.15625 -34.898438 24.035156 -36.484375 19.796875 -36.484375 L 17.34375 -36.484375 Z M 17.34375 -26"/>
</g>
<g id="f">
<path d="M 43.9375 -45.859375 L 43.9375 -18.25 C 43.9375 -12.25 42.238281 -7.601562 38.84375 -4.3125 C 35.445312 -1.019531 30.550781 0.625 24.15625 0.625 C 17.894531 0.625 13.085938 -0.972656 9.734375 -4.171875 C 6.378906 -7.367188 4.703125 -11.96875 4.703125 -17.96875 L 4.703125 -45.859375 L 17.15625 -45.859375 L 17.15625 -18.9375 C 17.15625 -15.695312 17.757812 -13.34375 18.96875 -11.875 C 20.1875 -10.414062 21.976562 -9.6875 24.34375 -9.6875 C 26.875 -9.6875 28.707031 -10.410156 29.84375 -11.859375 C 30.976562 -13.316406 31.546875 -15.695312 31.546875 -19 L 31.546875 -45.859375 Z M 43.9375 -45.859375"/>
</g>
<g id="g">
<path d="M 32.1875 0 L 4.953125 0 L 4.953125 -45.859375 L 32.1875 -45.859375 L 32.1875 -35.90625 L 17.34375 -35.90625 L 17.34375 -28.703125 L 31.078125 -28.703125 L 31.078125 -18.75 L 17.34375 -18.75 L 17.34375 -10.09375 L 32.1875 -10.09375 Z M 32.1875 0"/>
</g>
<g id="h">
<path d="M 43.875 -23.90625 C 43.875 -16.25 41.765625 -10.347656 37.546875 -6.203125 C 33.335938 -2.066406 27.421875 0 19.796875 0 L 4.953125 0 L 4.953125 -45.859375 L 20.828125 -45.859375 C 28.179688 -45.859375 33.859375 -43.972656 37.859375 -40.203125 C 41.867188 -36.441406 43.875 -31.007812 43.875 -23.90625 Z M 31.015625 -23.453125 C 31.015625 -27.660156 30.179688 -30.773438 28.515625 -32.796875 C 26.859375 -34.828125 24.335938 -35.84375 20.953125 -35.84375 L 17.34375 -35.84375 L 17.34375 -10.15625 L 20.109375 -10.15625 C 23.867188 -10.15625 26.625 -11.25 28.375 -13.4375 C 30.132812 -15.625 31.015625 -18.960938 31.015625 -23.453125 Z M 31.015625 -23.453125"/>
</g>
<g id="i">
<path d="M 33.09375 0 L 30.828125 -8.59375 L 15.9375 -8.59375 L 13.609375 0 L 0 0 L 14.953125 -46.046875 L 31.484375 -46.046875 L 46.640625 0 Z M 28.265625 -18.75 L 26.28125 -26.28125 C 25.820312 -27.957031 25.265625 -30.125 24.609375 -32.78125 C 23.953125 -35.4375 23.515625 -37.335938 23.296875 -38.484375 C 23.109375 -37.421875 22.738281 -35.664062 22.1875 -33.21875 C 21.632812 -30.769531 20.40625 -25.945312 18.5 -18.75 Z M 28.265625 -18.75"/>
</g>
<g id="a">
<path d="M 42.257812 -25.984375 L 42.257812 -38.925781 L 19.988281 -38.925781 L 19.988281 -51.773438 L 43.210938 -51.773438 L 43.210938 -64.71875 L 5.710938 -64.71875 L 5.710938 0 L 19.988281 0 L 19.988281 -25.984375 Z M 42.257812 -25.984375"/>
</g>
<g id="b">
<path d="M 19.988281 -23.128906 L 20.082031 -23.128906 L 35.5 0 L 53.582031 0 L 35.023438 -23.792969 C 43.210938 -25.792969 49.777344 -33.027344 49.777344 -43.972656 C 49.777344 -56.25 40.449219 -64.71875 29.980469 -64.71875 L 5.710938 -64.71875 L 5.710938 0 L 19.988281 0 Z M 27.601562 -53.488281 C 31.789062 -53.488281 36.167969 -49.871094 36.167969 -43.972656 C 36.167969 -37.785156 31.789062 -34.359375 27.601562 -34.359375 L 19.988281 -34.359375 L 19.988281 -53.488281 Z M 27.601562 -53.488281"/>
</g>
<g id="c">
<path d="M 40.925781 -24.746094 L 24.554688 -24.746094 L 32.738281 -47.777344 Z M 65.101562 0 L 38.832031 -64.71875 L 26.746094 -64.71875 L 0.476562 0 L 15.800781 0 L 20.460938 -13.039062 L 45.113281 -13.039062 L 49.777344 0 Z M 65.101562 0"/>
</g>
<g id="d">
<path d="M 56.535156 0 L 56.535156 -64.71875 L 42.257812 -64.71875 L 42.257812 -24.363281 L 19.988281 -64.71875 L 5.710938 -64.71875 L 5.710938 0 L 19.988281 0 L 19.988281 -40.355469 L 42.257812 0 Z M 56.535156 0"/>
</g>
</defs>
<path fill="#FFF" d="M-37.5 -37.5H412.5V412.5H-37.5z"/>
<path fill="#FFF" d="M-37.5 -37.5H412.5V412.5H-37.5z"/>
<path d="M-37.5 -37.5H412.5V412.5H-37.5z"/>
<path fill="#FFF" d="M 363.875 0 L 0 0 L 0 375 L 375 375 L 375 0 Z M 363.875 363.875 L 11.25 363.875 L 11.25 11.25 L 363.875 11.25 Z M 363.875 363.875"/>
<g fill="#FFF">
<use x="73.494" y="172.578" xmlns:xlink="http://www.w3.org/1999/xlink" xlink:href="#a" xlink:type="simple" xlink:actuate="onLoad" xlink:show="embed"/>
</g>
<g fill="#FFF">
<use x="121.458" y="172.578" xmlns:xlink="http://www.w3.org/1999/xlink" xlink:href="#b" xlink:type="simple" xlink:actuate="onLoad" xlink:show="embed"/>
</g>
<g fill="#FFF">
<use x="173.896" y="172.578" xmlns:xlink="http://www.w3.org/1999/xlink" xlink:href="#c" xlink:type="simple" xlink:actuate="onLoad" xlink:show="embed"/>
</g>
<g fill="#FFF">
<use x="239.467" y="172.578" xmlns:xlink="http://www.w3.org/1999/xlink" xlink:href="#d" xlink:type="simple" xlink:actuate="onLoad" xlink:show="embed"/>
</g>
<g fill="#FFF">
<use x="77.054" y="240.414" xmlns:xlink="http://www.w3.org/1999/xlink" xlink:href="#e" xlink:type="simple" xlink:actuate="onLoad" xlink:show="embed"/>
</g>
<g fill="#FFF">
<use x="120.524" y="240.414" xmlns:xlink="http://www.w3.org/1999/xlink" xlink:href="#f" xlink:type="simple" xlink:actuate="onLoad" xlink:show="embed"/>
</g><g fill="#FFF"><use x="169.138" y="240.414" xmlns:xlink="http://www.w3.org/1999/xlink" xlink:href="#g" xlink:type="simple" xlink:actuate="onLoad" xlink:show="embed"/></g><g fill="#FFF"><use x="204.39" y="240.414" xmlns:xlink="http://www.w3.org/1999/xlink" xlink:href="#h" xlink:type="simple" xlink:actuate="onLoad" xlink:show="embed"/></g><g fill="#FFF"><use x="251.53" y="240.414" xmlns:xlink="http://www.w3.org/1999/xlink" xlink:href="#i" xlink:type="simple" xlink:actuate="onLoad" xlink:show="embed"/></g></svg>